<svg width="496" height="674" viewBox="0 0 496 674" fill="none" xmlns="http://www.w3.org/2000/svg">
<path opacity="0.9" fill-rule="evenodd" clip-rule="evenodd" d="M222.24 56.3358C256.279 69.8225 278.525 101.565 304.174 127.702C323.556 147.452 332.302 176.584 355.316 191.943C387.651 213.521 436.144 205.364 462.865 233.605C488.808 261.023 495.721 302.865 495.995 340.621C496.278 379.554 484.591 418.438 464.45 451.751C444.44 484.849 419.052 523.173 381.117 530.63C339.215 538.867 302.166 482.567 260.482 491.846C218.188 501.26 207.519 567.771 165.567 578.61C127.134 588.54 77.5496 576.396 52.508 545.581C25.4576 512.294 46.5213 460.964 36.1374 419.34C28.668 389.398 0.840004 366.05 0.0255556 335.201C-0.783915 304.54 17.8062 277.234 31.6634 249.875C44.1996 225.124 68.2438 207.742 77.7804 181.687C93.4892 138.768 70.7206 78.8223 105.231 48.8769C135.083 22.9738 185.502 41.7794 222.24 56.3358Z" fill="#F3F5F7"/>
<g opacity="0.5">
<path opacity="0.5" d="M189.41 564.113V423.808H141.66L141.66 564.113C141.66 620.701 188.215 667 245.123 667C302.01 667 348.587 620.701 348.587 564.113V423.808H300.837V564.113C300.837 571.394 299.386 578.603 296.57 585.318C293.753 592.033 289.627 598.12 284.432 603.223C279.276 608.394 273.15 612.498 266.406 615.298C259.661 618.098 252.43 619.539 245.127 619.539C237.824 619.539 230.593 618.098 223.848 615.298C217.103 612.498 210.978 608.394 205.822 603.223C200.626 598.12 196.498 592.034 193.68 585.319C190.863 578.604 189.411 571.395 189.41 564.113Z" fill="url(#paint0_linear)"/>
</g>
<g filter="url(#filter0_d)">
<path d="M283.75 602.163C276.093 609.784 266.353 614.97 255.755 617.068C245.158 619.166 234.177 618.082 224.194 613.952C214.211 609.823 205.673 602.833 199.654 593.862C193.636 584.891 190.405 574.34 190.37 563.537V477.495H143.438V563.537C143.438 619.464 189.196 665.222 245.123 665.222C301.05 665.222 346.809 619.464 346.809 563.537V477.495H299.877V563.537C299.876 570.722 298.45 577.835 295.682 584.465C292.914 591.096 288.858 597.111 283.75 602.163Z" fill="#77838D"/>
</g>
<g filter="url(#filter1_d)">
<path d="M299.877 424.875V478.207H346.809V424.875H299.877Z" fill="#F4CA64"/>
</g>
<g filter="url(#filter2_d)">
<path d="M143.438 424.875V478.207H190.37V424.875H143.438Z" fill="#F4CA64"/>
</g>
<g opacity="0.5">
<path opacity="0.5" d="M180.244 234.659C180.244 216.669 170.587 208.349 157.645 208.349C135.047 208.349 118.813 226.56 118.813 249.158C118.955 259.945 123.34 270.243 131.018 277.821C138.697 285.399 149.051 289.648 159.839 289.648C170.627 289.648 180.981 285.399 188.66 277.821C196.338 270.243 200.723 259.945 200.865 249.158C200.793 240.817 198.137 232.703 193.264 225.934C193.026 225.599 192.723 225.314 192.374 225.097C192.025 224.879 191.636 224.734 191.23 224.668C190.887 224.602 190.532 224.625 190.201 224.736C189.869 224.847 189.572 225.042 189.338 225.301C189.109 225.571 188.937 225.885 188.835 226.224C188.732 226.563 188.7 226.919 188.742 227.271C188.783 227.623 188.896 227.962 189.075 228.268C189.254 228.574 189.493 228.84 189.779 229.049C191.742 230.542 195.063 235 195.361 248.191C195.816 268.151 179.924 284.855 159.956 284.919C140.152 284.983 124.516 268.72 124.295 249.158C124.075 229.596 137.898 213.838 157.204 213.838C169.492 213.838 175.195 222.371 174.982 232.704C175.202 235.996 173.886 236.65 169.293 236.216C165.51 235.854 149.738 232.241 144.22 230.961C143.762 230.85 143.285 230.847 142.826 230.951C142.366 231.055 141.937 231.264 141.572 231.561C141.207 231.859 140.916 232.237 140.722 232.666C140.527 233.095 140.435 233.563 140.451 234.033V234.254C140.533 234.932 140.84 235.563 141.324 236.045C141.807 236.528 142.439 236.833 143.118 236.913C144.005 237.026 144.897 237.088 145.791 237.098C141.845 239.075 138.773 243.683 138.553 249.187C138.773 260.813 149.304 270.903 164.664 271.344C174.974 271.344 180.898 265.862 180.898 256.411C180.898 249.827 176.951 245.034 173.218 242.367C173.225 242.353 179.803 242.573 180.244 234.659ZM175.636 255.501C175.636 261.424 171.248 264.937 164.258 264.937C152.17 264.937 144.511 256.817 144.511 249.144C144.511 242.346 149.119 239.708 155.263 239.487C165.126 239.502 175.636 245.866 175.636 255.515V255.501Z" fill="url(#paint1_linear)"/>
</g>
<path d="M179.348 235.321C179.348 218.126 170.104 210.162 157.752 210.162C136.156 210.162 120.64 227.563 120.64 249.158C120.64 259.557 124.771 269.53 132.125 276.884C139.478 284.237 149.451 288.368 159.85 288.368C170.249 288.368 180.222 284.237 187.575 276.884C194.928 269.53 199.059 259.557 199.059 249.158C198.991 241.188 196.455 233.435 191.799 226.965C191.572 226.644 191.284 226.371 190.951 226.162C190.617 225.953 190.246 225.813 189.858 225.749C189.53 225.686 189.192 225.708 188.875 225.814C188.559 225.92 188.275 226.106 188.051 226.354C187.836 226.611 187.676 226.909 187.58 227.23C187.484 227.552 187.455 227.889 187.494 228.222C187.533 228.555 187.64 228.876 187.808 229.166C187.976 229.457 188.202 229.709 188.471 229.909C190.341 231.331 193.52 235.598 193.804 248.205C194.238 267.284 179.049 283.241 159.964 283.305C141.041 283.369 126.094 267.824 125.888 249.13C125.682 230.435 138.887 215.375 157.34 215.375C169.08 215.375 174.534 223.552 174.32 233.408C174.527 236.551 173.275 237.184 168.866 236.764C165.247 236.423 150.179 232.967 144.91 231.737C144.473 231.631 144.017 231.628 143.578 231.728C143.14 231.828 142.73 232.028 142.382 232.312C142.033 232.596 141.755 232.958 141.57 233.367C141.384 233.777 141.296 234.224 141.312 234.673V234.887C141.39 235.535 141.685 236.138 142.148 236.599C142.611 237.059 143.216 237.35 143.865 237.425C144.714 237.534 145.568 237.593 146.424 237.603C142.649 239.488 139.712 243.896 139.506 249.137C139.712 260.251 149.781 269.894 164.458 270.313C174.313 270.313 179.974 265.072 179.974 256.056C179.974 249.763 176.198 245.155 172.635 242.638C172.628 242.659 178.921 242.865 179.348 235.321ZM174.946 255.231C174.946 260.92 170.751 264.248 164.045 264.248C152.511 264.248 145.173 256.49 145.173 249.151C145.173 242.652 149.575 240.135 155.448 239.907C164.87 239.928 174.939 246.037 174.939 255.238L174.946 255.231Z" fill="#7C288A"/>
<g opacity="0.5">
<path opacity="0.5" d="M110.073 162.654C110.073 152.087 104.385 147.195 96.8046 147.195C83.5357 147.195 74 157.861 74 171.159C74 177.548 76.5382 183.676 81.0563 188.194C85.5743 192.712 91.7021 195.25 98.0916 195.25C104.481 195.25 110.609 192.712 115.127 188.194C119.645 183.676 122.183 177.548 122.183 171.159C122.14 166.26 120.58 161.495 117.718 157.52C117.429 157.134 117 156.879 116.523 156.809C116.322 156.77 116.114 156.783 115.92 156.848C115.725 156.913 115.551 157.027 115.414 157.179C115.279 157.337 115.177 157.522 115.117 157.721C115.056 157.92 115.037 158.13 115.061 158.337C115.085 158.544 115.152 158.743 115.256 158.923C115.361 159.103 115.502 159.26 115.67 159.383C116.822 160.258 118.77 162.882 118.948 170.626C119.023 173.413 118.541 176.188 117.533 178.787C116.524 181.387 115.008 183.76 113.072 185.767C111.137 187.775 108.821 189.377 106.26 190.48C103.699 191.583 100.944 192.166 98.1556 192.193C86.5294 192.228 77.3421 182.678 77.2141 171.194C77.0861 159.71 85.1996 150.452 96.5415 150.452C103.759 150.452 107.108 155.479 106.98 161.531C107.108 163.465 106.333 163.849 103.631 163.593C101.412 163.38 92.147 161.26 88.9115 160.507C88.6427 160.442 88.3625 160.44 88.0929 160.501C87.8232 160.563 87.5715 160.686 87.3573 160.861C87.1431 161.036 86.9723 161.258 86.8583 161.51C86.7443 161.762 86.6901 162.037 86.7 162.313V162.441C86.7484 162.838 86.9289 163.208 87.2126 163.49C87.4963 163.773 87.8668 163.952 88.2644 163.998C88.7858 164.064 89.3105 164.1 89.8359 164.105C88.5622 164.81 87.497 165.839 86.7479 167.087C85.9988 168.336 85.5923 169.76 85.5694 171.216C85.6974 178.042 91.8838 183.973 100.9 184.229C106.959 184.229 110.436 181.007 110.436 175.468C110.4 173.833 109.971 172.23 109.187 170.795C108.402 169.359 107.285 168.133 105.928 167.219C105.928 167.219 109.817 167.298 110.073 162.654ZM107.371 174.928C107.371 178.405 104.797 180.467 100.673 180.467C93.562 180.467 89.0751 175.703 89.0751 171.223C89.0751 167.226 91.7772 165.683 95.3895 165.534C101.185 165.491 107.371 169.239 107.371 174.928Z" fill="url(#paint2_linear)"/>
</g>
<path d="M109.469 163.088C109.469 153.062 104.086 148.411 96.8687 148.411C84.2682 148.411 75.2231 158.565 75.2231 171.166C75.2231 177.232 77.6329 183.05 81.9222 187.339C86.2116 191.628 92.0292 194.038 98.0953 194.038C104.161 194.038 109.979 191.628 114.268 187.339C118.558 183.05 120.967 177.232 120.967 171.166C120.919 166.512 119.428 161.988 116.701 158.217C116.569 158.029 116.401 157.87 116.207 157.748C116.013 157.626 115.796 157.544 115.57 157.506C115.38 157.469 115.183 157.481 114.998 157.542C114.814 157.603 114.649 157.711 114.518 157.854C114.388 158.004 114.291 158.179 114.232 158.369C114.174 158.558 114.156 158.758 114.18 158.955C114.203 159.152 114.267 159.341 114.369 159.512C114.47 159.682 114.605 159.83 114.767 159.945C115.862 160.777 117.711 163.266 117.881 170.611C117.956 173.259 117.502 175.894 116.546 178.364C115.589 180.833 114.15 183.087 112.312 184.994C110.473 186.9 108.273 188.421 105.84 189.466C103.407 190.512 100.79 191.062 98.1415 191.083C87.1054 191.119 78.3875 182.053 78.231 171.173C78.0746 160.293 85.861 151.462 96.6269 151.462C103.475 151.462 106.653 156.233 106.532 161.979C106.653 163.813 105.921 164.183 103.354 163.934C101.221 163.735 92.4528 161.716 89.3809 161.005C89.1235 160.936 88.8537 160.93 88.5932 160.985C88.3327 161.04 88.0889 161.156 87.8813 161.322C87.6737 161.489 87.5082 161.702 87.3981 161.945C87.2881 162.187 87.2365 162.452 87.2476 162.718V162.839C87.2931 163.217 87.4644 163.568 87.7341 163.837C88.0037 164.105 88.3559 164.275 88.7338 164.318C89.2291 164.383 89.7277 164.418 90.2271 164.425C89.0213 165.093 88.0134 166.067 87.3054 167.25C86.5974 168.432 86.2144 169.781 86.1952 171.159C86.3161 177.644 92.1897 183.247 100.751 183.51C106.497 183.51 109.803 180.453 109.803 175.191C109.769 173.641 109.364 172.122 108.621 170.761C107.879 169.4 106.821 168.237 105.537 167.369C105.537 167.369 109.22 167.49 109.469 163.088ZM106.902 174.707C106.902 178.007 104.456 179.969 100.545 179.969C93.8181 179.969 89.5373 175.447 89.5373 171.166C89.5373 167.376 92.1044 165.904 95.5318 165.783C101.029 165.776 106.902 169.324 106.902 174.707Z" fill="#7C288A"/>
<g opacity="0.5">
<path opacity="0.5" d="M161.115 87.0158C161.115 76.1504 155.284 71.1088 147.462 71.1088C133.81 71.1088 123.997 82.1093 123.997 95.7622C124.107 102.263 126.766 108.46 131.402 113.018C136.039 117.577 142.28 120.131 148.782 120.131C155.283 120.131 161.524 117.577 166.161 113.018C170.797 108.46 173.456 102.263 173.566 95.7622C173.522 90.7232 171.917 85.8218 168.973 81.7324C168.829 81.529 168.647 81.3562 168.435 81.2243C168.224 81.0925 167.989 81.0041 167.743 80.9645C167.535 80.9239 167.32 80.938 167.12 81.0053C166.919 81.0726 166.739 81.1909 166.598 81.3485C166.46 81.5117 166.357 81.7015 166.296 81.9061C166.235 82.1107 166.216 82.3257 166.241 82.5378C166.267 82.7499 166.336 82.9545 166.443 83.1389C166.551 83.3233 166.696 83.4836 166.868 83.6097C168.048 84.5128 170.061 87.2078 170.239 95.1791C170.316 98.0472 169.822 100.902 168.784 103.577C167.747 106.252 166.187 108.694 164.196 110.76C162.205 112.825 159.823 114.474 157.188 115.609C154.553 116.745 151.718 117.344 148.849 117.372C136.889 117.415 127.438 107.588 127.303 95.7693C127.168 83.951 135.523 74.4367 147.214 74.4367C154.637 74.4367 158.079 79.6063 157.951 85.8141C158.086 87.8051 157.29 88.2033 154.502 87.9473C152.22 87.7269 142.691 85.5439 139.356 84.7688C139.08 84.7016 138.791 84.6994 138.514 84.7622C138.237 84.8251 137.978 84.9514 137.757 85.1312C137.537 85.311 137.361 85.5394 137.243 85.7985C137.126 86.0577 137.07 86.3404 137.081 86.6247V86.7598C137.129 87.1704 137.315 87.5525 137.608 87.8442C137.901 88.1359 138.284 88.3201 138.695 88.3669C139.23 88.4359 139.769 88.4738 140.309 88.4806C139.007 89.2074 137.918 90.2628 137.15 91.5417C136.383 92.8206 135.964 94.2782 135.936 95.7693C136.071 102.795 142.428 108.889 151.708 109.159C157.937 109.159 161.514 105.845 161.514 100.143C161.476 98.4606 161.035 96.8123 160.229 95.3361C159.422 93.8599 158.273 92.599 156.877 91.6592C156.877 91.6592 160.859 91.7872 161.115 87.0158ZM158.335 99.6092C158.335 103.165 155.683 105.298 151.445 105.298C144.156 105.298 139.513 100.391 139.513 95.7551C139.513 91.645 142.293 90.0664 146.005 89.9242C151.971 89.9313 158.335 93.7712 158.335 99.6092Z" fill="url(#paint3_linear)"/>
</g>
<path d="M160.148 87.6913C160.148 77.665 154.765 73.0144 147.548 73.0144C134.947 73.0144 125.902 83.1688 125.902 95.7692C125.902 101.835 128.312 107.653 132.601 111.942C136.891 116.232 142.708 118.641 148.774 118.641C154.84 118.641 160.658 116.232 164.947 111.942C169.237 107.653 171.646 101.835 171.646 95.7692C171.598 91.1155 170.107 86.5912 167.38 82.8203C167.248 82.6327 167.08 82.4732 166.886 82.3512C166.692 82.2291 166.475 82.1468 166.249 82.1092C166.059 82.0721 165.862 82.0846 165.677 82.1456C165.493 82.2067 165.328 82.3141 165.197 82.4577C165.067 82.6074 164.97 82.7826 164.911 82.9721C164.853 83.1616 164.835 83.3612 164.859 83.5581C164.882 83.7549 164.946 83.9447 165.047 84.1152C165.149 84.2858 165.284 84.4333 165.446 84.5483C166.541 85.3803 168.39 87.8691 168.56 95.2146C168.635 97.8619 168.181 100.497 167.225 102.967C166.268 105.437 164.829 107.691 162.991 109.597C161.152 111.504 158.952 113.024 156.519 114.07C154.086 115.115 151.469 115.665 148.82 115.687C137.784 115.722 129.066 106.656 128.91 95.7764C128.754 84.8967 136.561 76.0863 147.349 76.0863C154.196 76.0863 157.375 80.8577 157.254 86.6033C157.375 88.4379 156.642 88.8077 154.075 88.5588C151.942 88.3597 143.174 86.3402 140.103 85.6291C139.845 85.5609 139.575 85.5542 139.315 85.6094C139.054 85.6646 138.81 85.7803 138.603 85.947C138.395 86.1138 138.23 86.327 138.12 86.5695C138.01 86.8119 137.958 87.0768 137.969 87.3429V87.4637C138.015 87.8414 138.186 88.1928 138.456 88.4611C138.725 88.7295 139.078 88.8992 139.455 88.9428C139.951 89.0072 140.449 89.0428 140.949 89.0495C139.743 89.7157 138.734 90.6886 138.025 91.8698C137.316 93.0511 136.931 94.3987 136.91 95.7764C137.031 102.261 142.904 107.865 151.466 108.128C157.211 108.128 160.518 105.07 160.518 99.8082C160.484 98.2583 160.078 96.7393 159.336 95.3783C158.594 94.0174 157.536 92.8542 156.251 91.9862C156.251 91.9862 159.921 92.0929 160.148 87.6913ZM157.581 99.3104C157.581 102.61 155.135 104.573 151.224 104.573C144.497 104.573 140.216 100.05 140.216 95.7692C140.216 91.9791 142.783 90.5072 146.211 90.3863C151.729 90.3792 157.595 93.9275 157.595 99.3104H157.581Z" fill="#7C288A"/>
<g opacity="0.5">
<path opacity="0.5" d="M234.642 155.017C234.642 144.656 229.081 139.857 221.629 139.857C208.616 139.857 199.265 150.345 199.265 163.358C199.265 169.625 201.755 175.635 206.186 180.067C210.617 184.498 216.628 186.988 222.895 186.988C229.161 186.988 235.172 184.498 239.603 180.067C244.034 175.635 246.524 169.625 246.524 163.358C246.482 158.554 244.951 153.881 242.144 149.983C242.005 149.792 241.829 149.632 241.628 149.51C241.427 149.388 241.203 149.307 240.97 149.271C240.773 149.233 240.569 149.246 240.379 149.31C240.188 149.373 240.017 149.485 239.882 149.634C239.755 149.789 239.66 149.968 239.604 150.161C239.547 150.354 239.531 150.556 239.554 150.755C239.578 150.955 239.642 151.147 239.743 151.321C239.843 151.495 239.978 151.647 240.138 151.767C241.269 152.628 243.182 155.195 243.353 162.796C243.423 165.53 242.95 168.25 241.96 170.799C240.969 173.348 239.482 175.674 237.584 177.643C235.686 179.612 233.416 181.183 230.905 182.266C228.394 183.349 225.693 183.922 222.959 183.951C211.581 183.987 202.543 174.622 202.422 163.33C202.301 152.038 210.244 142.985 221.38 142.985C228.491 142.985 231.741 147.913 231.613 153.851C231.741 155.749 230.98 156.126 228.327 155.87C226.144 155.728 217.035 153.595 213.885 152.884C213.622 152.82 213.347 152.818 213.082 152.878C212.818 152.938 212.571 153.059 212.361 153.23C212.151 153.402 211.983 153.62 211.871 153.867C211.76 154.114 211.706 154.383 211.716 154.654V154.782C211.763 155.173 211.94 155.536 212.219 155.813C212.498 156.091 212.862 156.266 213.252 156.311C213.764 156.377 214.279 156.412 214.795 156.418C213.553 157.109 212.514 158.115 211.783 159.334C211.051 160.554 210.653 161.944 210.628 163.365C210.756 170.064 216.822 175.873 225.668 176.129C231.605 176.129 235.019 172.972 235.019 167.539C234.982 165.936 234.562 164.365 233.792 162.958C233.022 161.551 231.926 160.35 230.596 159.454C230.596 159.454 234.386 159.568 234.642 155.017ZM231.968 167.027C231.968 170.441 229.444 172.46 225.398 172.46C218.45 172.46 214.02 167.781 214.02 163.365C214.02 159.447 216.673 157.932 220.214 157.804C225.924 157.797 231.968 161.467 231.968 167.027Z" fill="url(#paint4_linear)"/>
</g>
<path d="M234.265 155.287C234.265 145.261 228.882 140.611 221.665 140.611C209.064 140.611 200.019 150.765 200.019 163.365C200.019 169.431 202.429 175.249 206.718 179.538C211.007 183.828 216.825 186.238 222.891 186.238C228.957 186.238 234.775 183.828 239.064 179.538C243.354 175.249 245.763 169.431 245.763 163.365C245.715 158.712 244.224 154.187 241.497 150.417C241.365 150.229 241.197 150.069 241.003 149.947C240.809 149.825 240.592 149.743 240.366 149.705C240.176 149.668 239.979 149.681 239.794 149.742C239.61 149.803 239.444 149.91 239.314 150.054C239.184 150.204 239.087 150.379 239.028 150.568C238.97 150.758 238.952 150.957 238.976 151.154C238.999 151.351 239.063 151.541 239.164 151.711C239.266 151.882 239.401 152.029 239.563 152.144C240.658 152.976 242.507 155.465 242.677 162.811C242.752 165.458 242.298 168.094 241.342 170.563C240.385 173.033 238.946 175.287 237.108 177.193C235.269 179.1 233.069 180.62 230.636 181.666C228.203 182.712 225.586 183.261 222.937 183.283C211.901 183.319 203.183 174.252 203.027 163.373C202.87 152.493 210.636 143.64 221.423 143.64C228.271 143.64 231.449 148.411 231.328 154.157C231.449 155.991 230.717 156.361 228.15 156.112C226.016 155.913 217.249 153.894 214.177 153.183C213.919 153.114 213.65 153.108 213.389 153.163C213.129 153.218 212.885 153.334 212.677 153.501C212.47 153.667 212.304 153.88 212.194 154.123C212.084 154.365 212.032 154.63 212.044 154.896V155.017C212.089 155.395 212.26 155.746 212.53 156.015C212.8 156.283 213.152 156.453 213.53 156.496C214.025 156.561 214.524 156.596 215.023 156.603C213.817 157.269 212.808 158.242 212.099 159.423C211.39 160.605 211.005 161.952 210.984 163.33C211.105 169.815 216.978 175.418 225.54 175.681C231.286 175.681 234.592 172.624 234.592 167.362C234.558 165.812 234.153 164.293 233.41 162.932C232.668 161.571 231.61 160.408 230.326 159.54C230.326 159.54 234.016 159.689 234.265 155.287ZM231.698 166.907C231.698 170.206 229.252 172.169 225.341 172.169C218.614 172.169 214.333 167.646 214.333 163.365C214.333 159.575 216.9 158.103 220.328 157.982C225.824 157.975 231.691 161.524 231.691 166.907H231.698Z" fill="#7C288A"/>
<g opacity="0.5">
<path opacity="0.5" d="M253.969 217.728C253.969 206.948 248.181 201.949 240.458 201.949C226.948 201.949 217.185 212.864 217.185 226.41C217.185 232.932 219.775 239.186 224.387 243.798C228.998 248.409 235.252 251 241.774 251C248.296 251 254.55 248.409 259.161 243.798C263.773 239.186 266.363 232.932 266.363 226.41C266.319 221.412 264.727 216.55 261.805 212.494C261.663 212.293 261.483 212.122 261.274 211.992C261.065 211.861 260.832 211.773 260.589 211.734C260.384 211.694 260.173 211.708 259.975 211.774C259.777 211.84 259.599 211.956 259.459 212.11C259.321 212.272 259.218 212.46 259.156 212.663C259.094 212.867 259.075 213.08 259.1 213.291C259.125 213.502 259.193 213.706 259.3 213.889C259.407 214.073 259.55 214.232 259.722 214.357C260.895 215.253 262.886 217.913 263.064 225.834C263.144 228.682 262.657 231.517 261.629 234.174C260.601 236.83 259.055 239.256 257.079 241.308C255.104 243.36 252.739 244.998 250.123 246.126C247.508 247.254 244.694 247.85 241.845 247.878C229.977 247.914 220.605 238.172 220.47 226.446C220.335 214.72 228.626 205.277 240.195 205.277C247.562 205.277 250.975 210.404 250.862 216.583C250.99 218.553 250.207 218.951 247.441 218.716C245.173 218.503 235.723 216.334 232.416 215.566C232.142 215.499 231.855 215.496 231.579 215.558C231.304 215.621 231.046 215.746 230.827 215.924C230.608 216.103 230.433 216.33 230.316 216.587C230.2 216.845 230.144 217.126 230.155 217.408V217.543C230.203 217.95 230.388 218.328 230.678 218.617C230.968 218.907 231.348 219.089 231.755 219.136C232.288 219.205 232.824 219.243 233.362 219.25C232.069 219.97 230.987 221.016 230.226 222.286C229.465 223.555 229.05 225.002 229.024 226.481C229.152 233.45 235.467 239.501 244.668 239.765C250.847 239.765 254.396 236.479 254.396 230.826C254.366 229.139 253.927 227.485 253.117 226.005C252.307 224.525 251.15 223.263 249.745 222.329C249.745 222.329 253.706 222.464 253.969 217.728ZM251.21 230.222C251.21 233.777 248.579 235.91 244.369 235.91C237.138 235.91 232.537 231.047 232.537 226.446C232.537 222.371 235.296 220.757 238.979 220.658C244.896 220.622 251.203 224.434 251.203 230.222H251.21Z" fill="url(#paint5_linear)"/>
</g>
<path d="M253.109 218.304C253.109 208.277 247.726 203.627 240.508 203.627C227.908 203.627 218.863 213.781 218.863 226.382C218.863 232.448 221.272 238.265 225.562 242.555C229.851 246.844 235.669 249.254 241.735 249.254C247.801 249.254 253.618 246.844 257.908 242.555C262.197 238.265 264.607 232.448 264.607 226.382C264.559 221.728 263.068 217.204 260.34 213.433C260.208 213.245 260.041 213.086 259.846 212.964C259.652 212.842 259.436 212.759 259.21 212.722C259.019 212.685 258.822 212.697 258.638 212.758C258.453 212.819 258.288 212.927 258.157 213.07C258.027 213.22 257.93 213.395 257.872 213.585C257.814 213.774 257.796 213.974 257.819 214.171C257.842 214.367 257.907 214.557 258.008 214.728C258.109 214.898 258.245 215.046 258.406 215.161C259.501 215.993 261.35 218.482 261.521 225.827C261.595 228.474 261.141 231.11 260.185 233.58C259.229 236.049 257.789 238.303 255.951 240.21C254.113 242.116 251.913 243.637 249.48 244.682C247.046 245.728 244.429 246.278 241.781 246.299C230.745 246.335 222.027 237.269 221.87 226.389C221.714 215.509 229.451 206.699 240.217 206.699C247.064 206.699 250.243 211.47 250.122 217.216C250.243 219.05 249.51 219.42 246.943 219.171C244.81 218.972 236.042 216.953 232.971 216.242C232.713 216.173 232.443 216.167 232.183 216.222C231.922 216.277 231.679 216.393 231.471 216.56C231.263 216.726 231.098 216.94 230.988 217.182C230.878 217.424 230.826 217.689 230.837 217.955V218.076C230.883 218.454 231.054 218.805 231.324 219.074C231.593 219.342 231.946 219.512 232.323 219.555C232.819 219.62 233.317 219.655 233.817 219.662C232.611 220.328 231.602 221.301 230.893 222.482C230.184 223.664 229.799 225.011 229.778 226.389C229.899 232.874 235.772 238.477 244.334 238.74C250.079 238.74 253.386 235.683 253.386 230.421C253.352 228.871 252.946 227.352 252.204 225.991C251.462 224.63 250.404 223.467 249.119 222.599C249.119 222.599 252.867 222.741 253.109 218.304ZM250.541 229.923C250.541 233.222 248.095 235.185 244.184 235.185C237.457 235.185 233.177 230.662 233.177 226.382C233.177 222.592 235.744 221.12 239.171 220.999C244.675 221.027 250.541 224.576 250.541 229.951V229.923Z" fill="#7C288A"/>
<g opacity="0.5">
<path opacity="0.5" d="M330.013 217.728C330.013 206.948 324.225 201.949 316.502 201.949C302.991 201.949 293.228 212.864 293.228 226.41C293.228 232.932 295.819 239.186 300.43 243.798C305.042 248.409 311.296 251 317.818 251C324.339 251 330.594 248.409 335.205 243.798C339.816 239.186 342.407 232.932 342.407 226.41C342.363 221.412 340.77 216.55 337.849 212.494C337.707 212.293 337.526 212.122 337.317 211.992C337.109 211.861 336.876 211.773 336.633 211.734C336.428 211.694 336.216 211.708 336.018 211.774C335.82 211.84 335.643 211.956 335.502 212.11C335.365 212.272 335.262 212.46 335.2 212.663C335.138 212.867 335.119 213.08 335.144 213.291C335.168 213.502 335.236 213.706 335.343 213.889C335.45 214.073 335.594 214.232 335.765 214.357C336.939 215.253 338.93 217.913 339.108 225.834C339.188 228.682 338.7 231.517 337.673 234.174C336.645 236.83 335.098 239.256 333.123 241.308C331.148 243.36 328.783 244.998 326.167 246.126C323.551 247.254 320.737 247.85 317.889 247.878C306.021 247.914 296.649 238.172 296.513 226.446C296.378 214.72 304.67 205.277 316.239 205.277C323.606 205.277 327.019 210.404 326.905 216.583C327.033 218.553 326.251 218.951 323.485 218.716C321.217 218.503 311.766 216.334 308.46 215.566C308.185 215.499 307.899 215.496 307.623 215.558C307.347 215.621 307.09 215.746 306.871 215.924C306.652 216.103 306.477 216.33 306.36 216.587C306.243 216.845 306.188 217.126 306.199 217.408V217.543C306.247 217.95 306.431 218.328 306.722 218.617C307.012 218.907 307.391 219.089 307.798 219.136C308.331 219.205 308.868 219.243 309.406 219.25C308.112 219.97 307.031 221.016 306.27 222.286C305.509 223.555 305.094 225.002 305.068 226.481C305.196 233.45 311.51 239.501 320.712 239.765C326.891 239.765 330.439 236.479 330.439 230.826C330.414 229.143 329.982 227.491 329.179 226.012C328.377 224.532 327.228 223.268 325.832 222.329C325.832 222.329 329.75 222.464 330.013 217.728ZM327.254 230.222C327.254 233.777 324.623 235.91 320.413 235.91C313.181 235.91 308.581 231.047 308.581 226.446C308.581 222.371 311.34 220.757 315.023 220.658C320.939 220.622 327.254 224.434 327.254 230.222Z" fill="url(#paint6_linear)"/>
</g>
<path d="M329.16 218.304C329.16 208.277 323.777 203.627 316.559 203.627C303.959 203.627 294.914 213.781 294.914 226.382C294.914 232.448 297.323 238.265 301.613 242.555C305.902 246.844 311.72 249.254 317.786 249.254C323.852 249.254 329.669 246.844 333.959 242.555C338.248 238.265 340.658 232.448 340.658 226.382C340.61 221.728 339.119 217.204 336.391 213.433C336.259 213.245 336.092 213.086 335.897 212.964C335.703 212.842 335.487 212.759 335.261 212.722C335.07 212.685 334.873 212.697 334.689 212.758C334.504 212.819 334.339 212.927 334.208 213.07C334.078 213.22 333.981 213.395 333.923 213.585C333.865 213.774 333.847 213.974 333.87 214.171C333.893 214.367 333.958 214.557 334.059 214.728C334.16 214.898 334.296 215.046 334.457 215.161C335.552 215.993 337.401 218.482 337.572 225.827C337.647 228.474 337.192 231.11 336.236 233.58C335.28 236.049 333.84 238.303 332.002 240.21C330.164 242.116 327.964 243.637 325.531 244.682C323.097 245.728 320.48 246.278 317.832 246.299C306.796 246.335 298.078 237.269 297.921 226.389C297.765 215.509 305.502 206.699 316.268 206.699C323.115 206.699 326.294 211.47 326.173 217.216C326.294 219.05 325.561 219.42 322.994 219.171C320.861 218.972 312.093 216.953 309.022 216.242C308.764 216.173 308.494 216.167 308.234 216.222C307.973 216.277 307.73 216.393 307.522 216.56C307.314 216.726 307.149 216.94 307.039 217.182C306.929 217.424 306.877 217.689 306.888 217.955V218.076C306.934 218.454 307.105 218.805 307.375 219.074C307.644 219.342 307.997 219.512 308.374 219.555C308.87 219.62 309.368 219.655 309.868 219.662C308.676 220.342 307.684 221.323 306.991 222.508C306.298 223.692 305.929 225.038 305.921 226.41C306.042 232.895 311.916 238.499 320.477 238.762C326.223 238.762 329.529 235.704 329.529 230.442C329.495 228.892 329.09 227.373 328.347 226.012C327.605 224.651 326.547 223.488 325.263 222.62C325.263 222.62 328.911 222.741 329.16 218.304ZM326.593 229.923C326.593 233.222 324.146 235.185 320.235 235.185C313.509 235.185 309.228 230.662 309.228 226.382C309.228 222.592 311.795 221.12 315.222 220.999C320.719 221.027 326.593 224.576 326.593 229.951V229.923Z" fill="#7C288A"/>
<g opacity="0.5">
<path opacity="0.5" d="M371.057 109.763C371.057 98.8978 365.226 93.8633 357.411 93.8633C343.765 93.8633 333.945 104.864 333.945 118.51C333.945 125.082 336.556 131.385 341.203 136.033C345.851 140.68 352.154 143.291 358.726 143.291C365.299 143.291 371.602 140.68 376.25 136.033C380.897 131.385 383.508 125.082 383.508 118.51C383.464 113.471 381.859 108.569 378.914 104.48C378.771 104.276 378.588 104.104 378.377 103.972C378.165 103.84 377.93 103.752 377.684 103.712C377.476 103.671 377.262 103.685 377.061 103.753C376.86 103.82 376.681 103.938 376.539 104.096C376.401 104.259 376.299 104.449 376.237 104.653C376.176 104.858 376.158 105.073 376.183 105.285C376.208 105.497 376.277 105.702 376.385 105.886C376.493 106.071 376.637 106.231 376.809 106.357C377.99 107.26 380.002 109.955 380.18 117.919C380.254 120.784 379.757 123.635 378.719 126.305C377.68 128.976 376.121 131.414 374.132 133.476C372.143 135.539 369.764 137.185 367.132 138.32C364.501 139.454 361.67 140.054 358.805 140.084C346.844 140.127 337.401 130.299 337.266 118.481C337.131 106.663 345.479 97.1485 357.176 97.1485C364.6 97.1485 368.042 102.318 367.907 108.526C368.042 110.517 367.245 110.908 364.458 110.659C362.175 110.439 352.647 108.256 349.319 107.481C349.042 107.413 348.754 107.411 348.477 107.474C348.199 107.537 347.94 107.663 347.72 107.843C347.499 108.023 347.324 108.251 347.206 108.51C347.089 108.77 347.033 109.052 347.043 109.337V109.472C347.092 109.882 347.278 110.264 347.571 110.556C347.864 110.848 348.247 111.032 348.657 111.079C349.193 111.148 349.732 111.186 350.272 111.193C348.969 111.919 347.88 112.975 347.113 114.254C346.346 115.532 345.927 116.99 345.898 118.481C346.034 125.507 352.391 131.601 361.67 131.864C367.9 131.864 371.476 128.55 371.476 122.854C371.439 121.173 370.998 119.524 370.191 118.048C369.385 116.572 368.235 115.311 366.84 114.371C366.84 114.371 370.794 114.535 371.057 109.763ZM368.276 122.349C368.276 125.905 365.624 128.038 361.386 128.038C354.097 128.038 349.461 123.132 349.461 118.495C349.461 114.385 352.241 112.807 355.953 112.664C361.912 112.679 368.276 116.526 368.276 122.357V122.349Z" fill="url(#paint7_linear)"/>
</g>
<path d="M370.104 110.439C370.104 100.413 364.721 95.7622 357.503 95.7622C344.903 95.7622 335.858 105.917 335.858 118.517C335.858 124.583 338.268 130.401 342.557 134.69C346.846 138.979 352.664 141.389 358.73 141.389C364.796 141.389 370.614 138.979 374.903 134.69C379.192 130.401 381.602 124.583 381.602 118.517C381.554 113.863 380.063 109.339 377.336 105.568C377.204 105.381 377.036 105.221 376.842 105.099C376.648 104.977 376.431 104.895 376.205 104.857C376.014 104.82 375.818 104.832 375.633 104.893C375.449 104.954 375.283 105.062 375.153 105.205C375.023 105.355 374.925 105.53 374.867 105.72C374.809 105.909 374.791 106.109 374.814 106.306C374.838 106.503 374.902 106.692 375.003 106.863C375.104 107.034 375.24 107.181 375.402 107.296C376.497 108.128 378.345 110.617 378.516 117.962C378.591 120.61 378.137 123.245 377.18 125.715C376.224 128.184 374.785 130.438 372.946 132.345C371.108 134.251 368.908 135.772 366.475 136.818C364.042 137.863 361.425 138.413 358.776 138.435C347.74 138.47 339.022 129.404 338.866 118.524C338.709 107.644 346.503 98.8412 357.262 98.8412C364.109 98.8412 367.288 103.613 367.167 109.358C367.288 111.193 366.556 111.563 363.989 111.314C361.855 111.115 353.088 109.095 350.016 108.384C349.758 108.316 349.488 108.309 349.228 108.364C348.968 108.42 348.724 108.535 348.516 108.702C348.309 108.869 348.143 109.082 348.033 109.324C347.923 109.567 347.871 109.832 347.882 110.098V110.219C347.928 110.596 348.099 110.948 348.369 111.216C348.639 111.484 348.991 111.654 349.369 111.698C349.864 111.762 350.362 111.798 350.862 111.804C349.656 112.471 348.647 113.443 347.938 114.625C347.229 115.806 346.844 117.154 346.823 118.531C346.944 125.016 352.817 130.62 361.379 130.883C367.124 130.883 370.431 127.825 370.431 122.563C370.397 121.013 369.991 119.494 369.249 118.133C368.507 116.772 367.449 115.609 366.164 114.741C366.164 114.741 369.862 114.841 370.104 110.439ZM367.537 122.058C367.537 125.358 365.091 127.32 361.18 127.32C354.453 127.32 350.172 122.798 350.172 118.517C350.172 114.727 352.739 113.255 356.167 113.134C361.67 113.127 367.537 116.675 367.537 122.058Z" fill="#7C288A"/>
<path opacity="0.5" d="M298.611 151.746C298.611 144.585 294.764 141.265 289.616 141.265C280.621 141.265 274.15 148.518 274.15 157.513C274.346 161.714 276.153 165.678 279.195 168.582C282.237 171.486 286.281 173.106 290.487 173.106C294.693 173.106 298.737 171.486 301.779 168.582C304.821 165.678 306.628 161.714 306.824 157.513C306.794 154.193 305.736 150.963 303.795 148.269C303.7 148.135 303.58 148.021 303.441 147.935C303.301 147.848 303.146 147.79 302.984 147.764C302.848 147.737 302.707 147.745 302.574 147.789C302.442 147.833 302.324 147.91 302.23 148.013C302.139 148.12 302.07 148.246 302.03 148.381C301.989 148.516 301.976 148.658 301.993 148.798C302.009 148.939 302.055 149.074 302.127 149.196C302.198 149.318 302.294 149.423 302.408 149.506C303.19 150.096 304.542 151.874 304.634 157.129C304.659 158.987 304.318 160.832 303.63 162.559C302.942 164.285 301.921 165.859 300.625 167.191C298.007 169.881 294.428 171.421 290.675 171.472C286.922 171.523 283.303 170.081 280.613 167.463C277.923 164.845 276.384 161.266 276.333 157.513C276.247 149.741 281.751 143.448 289.438 143.448C294.33 143.448 296.599 146.854 296.549 150.964C296.634 152.272 296.115 152.535 294.281 152.386C292.773 152.244 286.494 150.8 284.325 150.295C284.143 150.252 283.953 150.25 283.771 150.292C283.588 150.333 283.417 150.417 283.272 150.535C283.127 150.653 283.011 150.804 282.933 150.974C282.856 151.145 282.819 151.331 282.825 151.519V151.604C282.857 151.874 282.978 152.125 283.171 152.318C283.363 152.51 283.614 152.632 283.884 152.663C284.238 152.708 284.594 152.731 284.951 152.735C284.092 153.213 283.373 153.909 282.868 154.753C282.363 155.596 282.088 156.558 282.071 157.541C282.157 162.171 286.338 166.188 292.467 166.366C296.57 166.366 298.931 164.183 298.931 160.428C298.906 159.32 298.615 158.234 298.083 157.261C297.551 156.289 296.793 155.458 295.873 154.839C295.873 154.839 298.433 154.889 298.611 151.746ZM296.776 160.045C296.776 162.405 295.027 163.799 292.233 163.799C287.426 163.799 284.368 160.564 284.368 157.506C284.368 154.797 286.203 153.751 288.635 153.659C292.581 153.666 296.776 156.198 296.776 160.045Z" fill="#7C288A"/>
<path opacity="0.5" d="M325.91 289.54C325.91 282.38 322.063 279.059 316.915 279.059C307.919 279.059 301.448 286.312 301.448 295.307C301.645 299.508 303.451 303.472 306.494 306.376C309.536 309.28 313.58 310.9 317.786 310.9C321.991 310.9 326.035 309.28 329.078 306.376C332.12 303.472 333.927 299.508 334.123 295.307C334.093 291.987 333.035 288.757 331.094 286.063C330.999 285.929 330.879 285.816 330.739 285.729C330.6 285.642 330.445 285.584 330.283 285.558C330.147 285.531 330.005 285.539 329.873 285.583C329.741 285.627 329.623 285.704 329.529 285.807C329.438 285.915 329.369 286.04 329.328 286.175C329.287 286.31 329.275 286.452 329.292 286.593C329.308 286.733 329.354 286.868 329.425 286.99C329.497 287.112 329.593 287.217 329.707 287.3C330.489 287.891 331.84 289.668 331.933 294.923C331.958 296.782 331.617 298.627 330.929 300.353C330.241 302.08 329.22 303.654 327.924 304.986C325.306 307.675 321.727 309.215 317.974 309.266C314.221 309.317 310.602 307.875 307.912 305.257C305.222 302.639 303.682 299.06 303.632 295.307C303.546 287.535 309.05 281.242 316.737 281.242C321.629 281.242 323.898 284.648 323.848 288.758C323.933 290.067 323.414 290.33 321.579 290.18C320.072 290.038 313.793 288.595 311.624 288.09C311.442 288.046 311.252 288.045 311.069 288.086C310.887 288.128 310.716 288.211 310.571 288.329C310.425 288.448 310.31 288.598 310.232 288.769C310.154 288.939 310.117 289.125 310.124 289.313V289.398C310.155 289.668 310.277 289.92 310.47 290.112C310.662 290.304 310.913 290.426 311.183 290.458C311.537 290.502 311.893 290.526 312.25 290.529C311.391 291.007 310.672 291.703 310.167 292.547C309.661 293.391 309.387 294.352 309.37 295.336C309.455 299.965 313.636 303.983 319.766 304.16C323.869 304.16 326.23 301.977 326.23 298.223C326.205 297.114 325.914 296.028 325.382 295.056C324.85 294.083 324.092 293.252 323.172 292.634C323.172 292.634 325.732 292.683 325.91 289.54ZM324.075 297.839C324.075 300.2 322.326 301.593 319.531 301.593C314.724 301.593 311.667 298.358 311.667 295.3C311.667 292.591 313.501 291.546 315.933 291.453C319.88 291.46 324.075 293.992 324.075 297.839Z" fill="#7C288A"/>
<path opacity="0.5" d="M204.364 306.436C204.364 299.276 200.517 295.955 195.368 295.955C186.373 295.955 179.902 303.208 179.902 312.203C180.098 316.404 181.905 320.368 184.948 323.272C187.99 326.176 192.034 327.796 196.24 327.796C200.445 327.796 204.489 326.176 207.532 323.272C210.574 320.368 212.381 316.404 212.577 312.203C212.547 308.883 211.489 305.653 209.548 302.959C209.453 302.825 209.332 302.711 209.193 302.625C209.054 302.538 208.899 302.48 208.737 302.454C208.601 302.427 208.459 302.435 208.327 302.479C208.195 302.523 208.077 302.6 207.983 302.703C207.892 302.811 207.823 302.936 207.782 303.071C207.741 303.206 207.729 303.348 207.745 303.489C207.762 303.629 207.808 303.764 207.879 303.886C207.951 304.008 208.047 304.113 208.161 304.196C208.943 304.787 210.294 306.564 210.387 311.819C210.412 313.678 210.071 315.523 209.383 317.249C208.695 318.976 207.674 320.55 206.378 321.882C205.082 323.213 203.536 324.277 201.829 325.011C200.121 325.746 198.286 326.137 196.428 326.162C194.57 326.187 192.725 325.846 190.998 325.158C189.272 324.47 187.698 323.449 186.366 322.153C185.034 320.857 183.97 319.311 183.236 317.604C182.502 315.897 182.111 314.062 182.085 312.203C182 304.431 187.504 298.138 195.191 298.138C200.083 298.138 202.351 301.544 202.302 305.654C202.387 306.963 201.868 307.226 200.033 307.076C198.526 306.934 192.247 305.491 190.078 304.986C189.896 304.942 189.706 304.941 189.523 304.982C189.34 305.024 189.17 305.107 189.025 305.225C188.879 305.344 188.763 305.494 188.686 305.665C188.608 305.835 188.571 306.021 188.578 306.209V306.294C188.609 306.564 188.731 306.816 188.923 307.008C189.116 307.2 189.367 307.322 189.637 307.354C189.991 307.398 190.347 307.422 190.704 307.425C189.845 307.903 189.126 308.599 188.621 309.443C188.115 310.287 187.84 311.248 187.824 312.232C187.909 316.861 192.09 320.879 198.22 321.056C202.323 321.056 204.684 318.873 204.684 315.119C204.659 314.01 204.368 312.924 203.836 311.952C203.304 310.979 202.546 310.148 201.626 309.53C201.626 309.53 204.186 309.579 204.364 306.436ZM202.529 314.735C202.529 317.096 200.78 318.489 197.985 318.489C193.178 318.489 190.121 315.254 190.121 312.196C190.121 309.487 191.955 308.442 194.387 308.349C198.334 308.356 202.529 310.895 202.529 314.735Z" fill="#7C288A"/>
<path opacity="0.5" d="M208.26 33.4212C208.26 26.2605 204.413 22.9398 199.265 22.9398C190.27 22.9398 183.799 30.1928 183.799 39.1881C183.995 43.3892 185.802 47.3533 188.844 50.257C191.887 53.1607 195.931 54.7808 200.136 54.7808C204.342 54.7808 208.386 53.1607 211.428 50.257C214.471 47.3533 216.277 43.3892 216.474 39.1881C216.444 35.8677 215.385 32.6382 213.444 29.944C213.35 29.81 213.229 29.6964 213.09 29.6097C212.951 29.523 212.796 29.465 212.634 29.4391C212.497 29.4118 212.356 29.4203 212.224 29.4639C212.092 29.5076 211.973 29.5848 211.88 29.688C211.788 29.7954 211.72 29.9207 211.679 30.0558C211.638 30.191 211.626 30.3333 211.642 30.4735C211.659 30.6138 211.704 30.749 211.776 30.8708C211.847 30.9926 211.943 31.0983 212.058 31.1812C212.84 31.7714 214.191 33.5492 214.283 38.8041C214.334 42.5571 212.892 46.1766 210.275 48.8664C207.657 51.5561 204.078 53.0958 200.325 53.1467C196.572 53.1977 192.952 51.7556 190.262 49.1379C187.573 46.5201 186.033 42.9411 185.982 39.1881C185.897 31.4159 191.401 25.1228 199.087 25.1228C203.98 25.1228 206.248 28.5289 206.198 32.639C206.284 33.9474 205.765 34.2105 203.93 34.0612C202.422 33.919 196.144 32.4754 193.975 31.9705C193.793 31.9266 193.603 31.9254 193.42 31.967C193.237 32.0085 193.067 32.0917 192.921 32.2101C192.776 32.3285 192.66 32.4789 192.583 32.6495C192.505 32.8201 192.468 33.0064 192.474 33.1937V33.279C192.506 33.549 192.628 33.8004 192.82 33.9927C193.012 34.1849 193.264 34.3068 193.534 34.3385C193.888 34.3828 194.244 34.4065 194.6 34.4096C193.741 34.8881 193.023 35.5841 192.517 36.4278C192.012 37.2714 191.737 38.2332 191.721 39.2166C191.806 43.8457 195.987 47.8634 202.117 48.0411C206.22 48.0411 208.58 45.8581 208.58 42.1036C208.555 40.9952 208.264 39.9091 207.732 38.9365C207.2 37.964 206.443 37.1333 205.523 36.5144C205.523 36.5144 208.09 36.5926 208.26 33.4212ZM206.426 41.7196C206.426 44.0804 204.677 45.4741 201.882 45.4741C197.075 45.4741 194.017 42.2387 194.017 39.181C194.017 36.4717 195.852 35.4265 198.284 35.334C202.238 35.3696 206.426 37.9082 206.426 41.748V41.7196Z" fill="#7C288A"/>
<path opacity="0.3" d="M240.437 292.726C240.437 288.716 238.304 286.853 235.396 286.853C230.354 286.853 226.735 290.913 226.735 295.955C226.801 298.337 227.794 300.599 229.502 302.26C231.211 303.922 233.5 304.851 235.883 304.851C238.266 304.851 240.555 303.922 242.263 302.26C243.972 300.599 244.964 298.337 245.031 295.955C245.015 294.096 244.424 292.287 243.338 290.778C243.23 290.627 243.066 290.525 242.883 290.494C242.807 290.479 242.728 290.484 242.655 290.509C242.581 290.534 242.515 290.578 242.464 290.636C242.412 290.696 242.374 290.767 242.351 290.842C242.328 290.918 242.321 290.998 242.33 291.077C242.34 291.156 242.365 291.232 242.405 291.3C242.445 291.369 242.499 291.428 242.563 291.475C242.997 291.809 243.744 292.805 243.808 295.741C243.85 296.8 243.681 297.856 243.308 298.847C242.936 299.839 242.369 300.745 241.64 301.514C240.912 302.283 240.037 302.898 239.067 303.323C238.097 303.748 237.051 303.974 235.992 303.988C234.933 304.002 233.882 303.804 232.901 303.406C231.92 303.007 231.029 302.416 230.28 301.667C229.531 300.918 228.939 300.027 228.541 299.046C228.142 298.065 227.944 297.014 227.958 295.955C227.908 291.603 230.994 288.076 235.296 288.076C238.034 288.076 239.307 289.982 239.257 292.285C239.307 292.997 239.015 293.167 237.984 293.068C237.138 292.989 233.625 292.179 232.395 291.894C232.291 291.875 232.185 291.88 232.083 291.907C231.982 291.934 231.887 291.983 231.807 292.051C231.727 292.119 231.663 292.204 231.619 292.3C231.576 292.396 231.554 292.5 231.556 292.605V292.655C231.58 292.804 231.651 292.942 231.758 293.048C231.865 293.154 232.004 293.223 232.153 293.245C232.351 293.271 232.551 293.285 232.75 293.288C232.27 293.556 231.867 293.945 231.584 294.416C231.301 294.888 231.146 295.426 231.136 295.976C231.186 298.571 233.533 300.819 236.96 300.918C239.257 300.918 240.579 299.695 240.579 297.59C240.565 296.97 240.401 296.362 240.103 295.817C239.805 295.273 239.381 294.808 238.866 294.461C239.086 294.46 239.304 294.414 239.505 294.324C239.706 294.234 239.886 294.103 240.034 293.94C240.182 293.777 240.294 293.585 240.363 293.376C240.433 293.167 240.458 292.946 240.437 292.726ZM239.413 297.377C239.413 298.699 238.432 299.51 236.868 299.51C234.18 299.51 232.466 297.697 232.466 295.955C232.466 294.44 233.49 293.821 234.862 293.821C237.06 293.8 239.413 295.222 239.413 297.37V297.377Z" fill="#7C288A"/>
<path opacity="0.3" d="M278.786 245.93C278.786 241.919 276.653 240.056 273.745 240.056C268.703 240.056 265.083 244.116 265.083 249.158C265.15 251.54 266.143 253.802 267.851 255.464C269.56 257.125 271.849 258.055 274.232 258.055C276.615 258.055 278.904 257.125 280.612 255.464C282.32 253.802 283.313 251.54 283.38 249.158C283.364 247.299 282.773 245.491 281.687 243.981C281.579 243.831 281.415 243.729 281.232 243.697C281.156 243.682 281.077 243.688 281.004 243.713C280.93 243.737 280.864 243.781 280.813 243.839C280.761 243.899 280.723 243.97 280.7 244.046C280.677 244.122 280.67 244.202 280.679 244.28C280.689 244.359 280.714 244.435 280.754 244.504C280.794 244.572 280.848 244.632 280.912 244.678C281.346 245.012 282.093 246.008 282.157 248.945C282.199 250.003 282.029 251.059 281.657 252.05C281.285 253.042 280.718 253.949 279.989 254.717C279.261 255.486 278.386 256.101 277.416 256.526C276.446 256.951 275.4 257.177 274.341 257.191C273.282 257.206 272.231 257.008 271.25 256.609C270.269 256.21 269.377 255.619 268.629 254.87C267.88 254.122 267.288 253.23 266.889 252.249C266.491 251.268 266.292 250.217 266.307 249.158C266.257 244.806 269.343 241.279 273.645 241.279C276.383 241.279 277.656 243.185 277.606 245.489C277.656 246.2 277.364 246.371 276.333 246.271C275.487 246.193 271.974 245.382 270.744 245.098C270.64 245.079 270.534 245.083 270.432 245.11C270.331 245.137 270.236 245.187 270.156 245.255C270.076 245.323 270.011 245.408 269.968 245.504C269.925 245.599 269.903 245.704 269.905 245.809V245.859C269.929 246.008 270 246.145 270.107 246.251C270.214 246.357 270.353 246.427 270.502 246.449C270.7 246.475 270.9 246.489 271.099 246.491C270.619 246.759 270.216 247.148 269.933 247.62C269.65 248.091 269.495 248.629 269.485 249.179C269.535 251.775 271.881 254.022 275.309 254.121C277.606 254.121 278.928 252.898 278.928 250.794C278.914 250.173 278.75 249.565 278.452 249.021C278.154 248.476 277.73 248.011 277.215 247.665C277.435 247.664 277.652 247.617 277.854 247.527C278.055 247.437 278.235 247.307 278.383 247.144C278.531 246.98 278.643 246.788 278.712 246.579C278.782 246.37 278.807 246.149 278.786 245.93ZM277.762 250.58C277.762 251.903 276.781 252.714 275.216 252.714C272.529 252.714 270.815 250.9 270.815 249.158C270.815 247.643 271.839 247.025 273.211 247.025C275.408 247.003 277.755 248.419 277.755 250.573L277.762 250.58Z" fill="#7C288A"/>
<path opacity="0.3" d="M231.968 106.187C231.968 102.176 229.835 100.313 226.926 100.313C221.885 100.313 218.265 104.374 218.265 109.415C218.332 111.797 219.325 114.059 221.033 115.721C222.741 117.382 225.031 118.312 227.414 118.312C229.797 118.312 232.086 117.382 233.794 115.721C235.502 114.059 236.495 111.797 236.562 109.415C236.546 107.556 235.955 105.748 234.869 104.238C234.761 104.088 234.597 103.986 234.414 103.954C234.338 103.939 234.259 103.945 234.186 103.97C234.112 103.995 234.046 104.038 233.995 104.096C233.943 104.157 233.905 104.227 233.882 104.303C233.859 104.379 233.852 104.459 233.861 104.537C233.871 104.616 233.896 104.692 233.936 104.761C233.976 104.829 234.03 104.889 234.094 104.935C234.528 105.27 235.275 106.265 235.339 109.202C235.381 110.26 235.211 111.316 234.839 112.307C234.467 113.299 233.9 114.206 233.171 114.975C232.443 115.743 231.568 116.358 230.597 116.783C229.627 117.208 228.582 117.434 227.523 117.448C226.464 117.463 225.413 117.265 224.432 116.866C223.451 116.467 222.559 115.876 221.81 115.127C221.061 114.379 220.47 113.487 220.071 112.506C219.673 111.525 219.474 110.474 219.488 109.415C219.439 105.063 222.525 101.536 226.827 101.536C229.565 101.536 230.837 103.442 230.788 105.746C230.837 106.457 230.546 106.628 229.515 106.528C228.669 106.45 225.156 105.639 223.926 105.355C223.822 105.336 223.716 105.34 223.614 105.367C223.512 105.394 223.418 105.444 223.338 105.512C223.258 105.58 223.193 105.665 223.15 105.761C223.106 105.856 223.085 105.961 223.087 106.066V106.116C223.111 106.265 223.181 106.402 223.289 106.508C223.396 106.614 223.535 106.684 223.684 106.706C223.882 106.732 224.081 106.746 224.281 106.749C223.8 107.016 223.398 107.405 223.115 107.877C222.832 108.349 222.677 108.886 222.667 109.436C222.717 112.032 225.063 114.279 228.491 114.379C230.788 114.379 232.11 113.155 232.11 111.051C232.096 110.43 231.932 109.822 231.634 109.278C231.336 108.733 230.911 108.268 230.397 107.922C230.617 107.921 230.834 107.874 231.035 107.784C231.237 107.695 231.417 107.564 231.565 107.401C231.712 107.237 231.825 107.045 231.894 106.836C231.964 106.627 231.989 106.406 231.968 106.187ZM230.944 110.837C230.944 112.16 229.963 112.971 228.398 112.971C225.71 112.971 223.997 111.157 223.997 109.415C223.997 107.901 225.021 107.282 226.393 107.282C228.612 107.261 230.958 108.676 230.958 110.83L230.944 110.837Z" fill="#7C288A"/>
<path opacity="0.3" d="M191.692 200.427C191.692 196.416 189.559 194.553 186.65 194.553C181.609 194.553 177.989 198.614 177.989 203.655C178.056 206.037 179.049 208.3 180.757 209.961C182.465 211.622 184.754 212.552 187.137 212.552C189.52 212.552 191.809 211.622 193.518 209.961C195.226 208.3 196.219 206.037 196.286 203.655C196.27 201.796 195.679 199.988 194.593 198.479C194.484 198.328 194.321 198.226 194.138 198.194C194.062 198.179 193.983 198.185 193.909 198.21C193.836 198.235 193.77 198.278 193.719 198.336C193.667 198.397 193.629 198.467 193.606 198.543C193.583 198.619 193.576 198.699 193.585 198.778C193.594 198.856 193.62 198.932 193.66 199.001C193.7 199.069 193.754 199.129 193.818 199.175C194.252 199.51 194.998 200.505 195.062 203.442C195.105 204.5 194.935 205.556 194.563 206.548C194.191 207.539 193.624 208.446 192.895 209.215C192.167 209.983 191.291 210.598 190.321 211.023C189.351 211.448 188.306 211.674 187.247 211.689C186.188 211.703 185.137 211.505 184.156 211.106C183.175 210.708 182.283 210.116 181.534 209.368C180.785 208.619 180.194 207.728 179.795 206.746C179.396 205.765 179.198 204.714 179.212 203.655C179.163 199.304 182.249 195.777 186.551 195.777C189.288 195.777 190.561 197.682 190.512 199.986C190.561 200.697 190.27 200.868 189.239 200.768C188.392 200.69 184.88 199.879 183.65 199.595C183.546 199.576 183.44 199.58 183.338 199.608C183.236 199.635 183.142 199.684 183.062 199.752C182.981 199.82 182.917 199.905 182.874 200.001C182.83 200.097 182.809 200.201 182.81 200.306V200.356C182.834 200.505 182.905 200.643 183.013 200.749C183.12 200.855 183.258 200.924 183.408 200.946C183.606 200.972 183.805 200.986 184.005 200.989C183.524 201.256 183.122 201.645 182.839 202.117C182.556 202.589 182.401 203.127 182.391 203.677C182.441 206.272 184.787 208.519 188.215 208.619C190.512 208.619 191.834 207.396 191.834 205.291C191.819 204.67 191.656 204.062 191.358 203.518C191.06 202.974 190.635 202.509 190.12 202.162C190.341 202.161 190.558 202.114 190.759 202.024C190.96 201.935 191.141 201.804 191.289 201.641C191.436 201.478 191.549 201.285 191.618 201.076C191.688 200.867 191.713 200.646 191.692 200.427ZM190.668 205.078C190.668 206.4 189.687 207.211 188.122 207.211C185.434 207.211 183.721 205.398 183.721 203.655C183.721 202.141 184.745 201.522 186.117 201.522C188.314 201.508 190.661 202.923 190.661 205.078H190.668Z" fill="#7C288A"/>
<path opacity="0.5" d="M160.816 151.746C160.816 144.585 156.969 141.265 151.821 141.265C142.826 141.265 136.355 148.518 136.355 157.513C136.551 161.714 138.358 165.678 141.4 168.582C144.443 171.486 148.487 173.106 152.692 173.106C156.898 173.106 160.942 171.486 163.984 168.582C167.027 165.678 168.833 161.714 169.029 157.513C168.999 154.193 167.941 150.963 166 148.269C165.906 148.135 165.785 148.021 165.646 147.935C165.507 147.848 165.352 147.79 165.19 147.764C165.053 147.737 164.912 147.745 164.78 147.789C164.648 147.833 164.529 147.91 164.436 148.013C164.344 148.12 164.276 148.246 164.235 148.381C164.194 148.516 164.181 148.658 164.198 148.798C164.215 148.939 164.26 149.074 164.332 149.196C164.403 149.318 164.499 149.423 164.614 149.506C165.396 150.096 166.747 151.874 166.839 157.129C166.865 158.987 166.523 160.832 165.836 162.559C165.148 164.285 164.127 165.859 162.83 167.191C161.534 168.523 159.988 169.587 158.281 170.321C156.574 171.055 154.739 171.446 152.881 171.472C151.022 171.497 149.177 171.156 147.451 170.468C145.724 169.78 144.15 168.759 142.818 167.463C141.487 166.167 140.423 164.621 139.689 162.914C138.954 161.206 138.563 159.371 138.538 157.513C138.453 149.741 143.957 143.448 151.643 143.448C156.536 143.448 158.804 146.854 158.754 150.964C158.84 152.272 158.32 152.535 156.486 152.386C154.978 152.244 148.699 150.8 146.531 150.295C146.348 150.252 146.159 150.25 145.976 150.292C145.793 150.333 145.622 150.417 145.477 150.535C145.332 150.653 145.216 150.804 145.139 150.974C145.061 151.145 145.024 151.331 145.03 151.519V151.604C145.062 151.874 145.184 152.125 145.376 152.318C145.568 152.51 145.82 152.632 146.09 152.663C146.444 152.708 146.8 152.731 147.156 152.735C146.297 153.213 145.579 153.909 145.073 154.753C144.568 155.596 144.293 156.558 144.276 157.541C144.362 162.171 148.543 166.188 154.673 166.366C158.776 166.366 161.136 164.183 161.136 160.428C161.111 159.32 160.82 158.234 160.288 157.261C159.756 156.289 158.998 155.458 158.079 154.839C158.079 154.839 160.639 154.889 160.816 151.746ZM158.982 160.045C158.982 162.405 157.233 163.799 154.438 163.799C149.631 163.799 146.573 160.564 146.573 157.506C146.573 154.797 148.408 153.751 150.84 153.659C154.786 153.666 158.982 156.198 158.982 160.045Z" fill="#7C288A"/>
<g opacity="0.5">
<path opacity="0.5" d="M307.82 32.4255C307.82 10.268 295.93 -0.000106812 279.988 -0.000106812C252.156 -0.000106812 232.153 22.4276 232.153 50.2667C232.153 78.1057 254.851 100.533 282.69 100.533C310.529 100.533 333.227 78.1057 333.227 50.2667C333.137 39.9922 329.866 29.9979 323.862 21.6596C323.569 21.2458 323.197 20.8944 322.768 20.6258C322.338 20.3572 321.859 20.1768 321.359 20.0952C320.937 20.0135 320.502 20.0419 320.094 20.1777C319.687 20.3135 319.322 20.552 319.034 20.8703C318.751 21.2027 318.54 21.5898 318.414 22.0074C318.288 22.425 318.25 22.864 318.301 23.2971C318.353 23.7302 318.493 24.1481 318.713 24.5246C318.933 24.9011 319.229 25.2281 319.581 25.4852C321.992 27.3198 326.088 32.8166 326.457 49.0649C327.012 73.6543 307.436 94.2261 282.846 94.3043C258.456 94.3825 239.193 74.3512 238.922 50.2524C238.652 26.1537 255.676 6.74098 279.454 6.74098C294.586 6.74098 301.612 17.2793 301.342 29.9794C301.612 34.0326 299.991 34.8432 294.316 34.3027C289.658 33.8619 270.232 29.4034 263.434 27.8247C262.87 27.6885 262.282 27.6844 261.717 27.8128C261.151 27.9411 260.623 28.1985 260.174 28.5647C259.724 28.931 259.365 29.3962 259.125 29.9241C258.885 30.4519 258.771 31.0282 258.79 31.6077V31.8779C258.891 32.7127 259.27 33.4892 259.866 34.0824C260.462 34.6757 261.24 35.0513 262.075 35.1489C263.168 35.2882 264.267 35.3641 265.368 35.3765C260.504 37.8084 256.721 43.4829 256.451 50.2382C256.721 64.5595 269.691 76.9894 288.606 77.5298C301.306 77.5298 308.602 70.7744 308.602 59.1553C308.602 51.0489 303.738 45.1042 299.144 41.8616C299.173 41.8901 307.279 42.1603 307.82 32.4255ZM302.131 58.0957C302.131 65.3915 296.727 69.7149 288.08 69.7149C273.218 69.7149 263.761 59.717 263.761 50.2596C263.761 41.8829 269.449 38.6404 277.001 38.3702C289.168 38.3986 302.145 46.2206 302.145 58.1029L302.131 58.0957Z" fill="url(#paint8_linear)"/>
</g>
<path d="M306.931 33.0585C306.931 11.6832 295.461 1.77065 280.08 1.77065C253.23 1.77065 233.938 23.409 233.938 50.2597C233.938 77.1104 255.832 98.7488 282.683 98.7488C309.533 98.7488 331.428 77.1104 331.428 50.2597C331.341 40.3507 328.186 30.7119 322.397 22.6695C322.114 22.2703 321.755 21.9313 321.34 21.6725C320.925 21.4137 320.462 21.2402 319.979 21.162C319.572 21.0819 319.151 21.1086 318.757 21.2394C318.364 21.3703 318.011 21.6009 317.732 21.9087C317.46 22.2291 317.256 22.6024 317.134 23.0051C317.012 23.4078 316.975 23.8313 317.025 24.2492C317.074 24.667 317.209 25.0701 317.421 25.4333C317.634 25.7965 317.919 26.112 318.258 26.36C320.584 28.1306 324.537 33.4354 324.893 49.1149C325.433 72.8368 306.547 92.6761 282.825 92.7543C259.295 92.8325 240.714 73.5123 240.451 50.2597C240.188 27.0071 256.614 8.30559 279.561 8.30559C294.16 8.30559 300.936 18.4741 300.673 30.7261C300.936 34.6371 299.372 35.4193 293.897 34.9002C289.403 34.4736 270.665 30.1786 264.109 28.6569C263.566 28.5262 263 28.5228 262.455 28.6469C261.91 28.7711 261.402 29.0193 260.969 29.3724C260.536 29.7255 260.19 30.1739 259.959 30.6825C259.728 31.1912 259.618 31.7464 259.636 32.3048V32.5679C259.733 33.374 260.099 34.1239 260.674 34.6967C261.25 35.2695 262.001 35.6318 262.808 35.7251C263.862 35.8598 264.924 35.9334 265.986 35.9455C261.293 38.2921 257.645 43.7675 257.382 50.2811C257.645 64.0975 270.182 76.0864 288.407 76.5913C300.659 76.5913 307.699 70.0778 307.699 58.8639C307.699 51.0419 303.006 45.3106 298.576 42.1818C298.59 42.1818 306.405 42.4449 306.931 33.0585ZM301.455 57.8257C301.455 64.8655 296.243 69.0324 287.902 69.0324C273.567 69.0324 264.436 59.3901 264.436 50.2597C264.436 42.1818 269.912 39.053 277.236 38.7899C288.94 38.797 301.455 46.3559 301.455 57.8257Z" fill="#7C288A"/>
<path opacity="0.6" d="M161.571 407.915C158.563 407.297 157.439 403.329 158.385 400.406C159.331 397.484 161.599 395.215 163.22 392.584C164.842 389.953 165.78 386.426 163.931 383.952C162.196 381.577 158.755 381.242 156.501 379.365C154.246 377.488 153.45 374.004 153.955 370.996C154.46 367.988 155.989 365.257 157.51 362.598L166.705 346.3" stroke="#CAA53C" stroke-width="5" stroke-miterlimit="10"/>
<path opacity="0.6" d="M179.348 413.604C176.34 412.985 175.216 409.017 176.162 406.095C177.108 403.172 179.376 400.904 180.997 398.273C182.619 395.642 183.557 392.115 181.709 389.64C179.973 387.265 176.532 386.931 174.278 385.054C172.024 383.177 171.227 379.692 171.732 376.684C172.237 373.676 173.766 370.946 175.287 368.286L184.482 351.988" stroke="#CAA53C" stroke-width="5" stroke-miterlimit="10"/>
<path opacity="0.6" d="M328.676 407.915C331.684 407.297 332.807 403.329 331.862 400.406C330.916 397.484 328.648 395.215 327.026 392.584C325.405 389.953 324.466 386.426 326.315 383.952C328.05 381.577 331.492 381.242 333.746 379.365C336 377.488 336.797 374.004 336.292 370.996C335.787 367.988 334.258 365.257 332.736 362.598L323.542 346.3" stroke="#CAA53C" stroke-width="5" stroke-miterlimit="10"/>
<path opacity="0.6" d="M310.899 413.604C313.907 412.985 315.03 409.017 314.085 406.095C313.139 403.172 310.87 400.904 309.249 398.273C307.628 395.642 306.689 392.115 308.538 389.64C310.273 387.265 313.715 386.931 315.969 385.054C318.223 383.177 319.02 379.692 318.515 376.684C318.01 373.676 316.481 370.946 314.959 368.286L305.765 351.988" stroke="#CAA53C" stroke-width="5" stroke-miterlimit="10"/>
<defs>
<filter id="filter0_d" x="139.438" y="477.495" width="211.371" height="195.727" filterUnits="userSpaceOnUse" color-interpolation-filters="sRGB">
<feFlood flood-opacity="0" result="BackgroundImageFix"/>
<feColorMatrix in="SourceAlpha" type="matrix" values="0 0 0 0 0 0 0 0 0 0 0 0 0 0 0 0 0 0 127 0"/>
<feOffset dy="4"/>
<feGaussianBlur stdDeviation="2"/>
<feColorMatrix type="matrix" values="0 0 0 0 0 0 0 0 0 0 0 0 0 0 0 0 0 0 0.15 0"/>
<feBlend mode="normal" in2="BackgroundImageFix" result="effect1_dropShadow"/>
<feBlend mode="normal" in="SourceGraphic" in2="effect1_dropShadow" result="shape"/>
</filter>
<filter id="filter1_d" x="295.877" y="424.875" width="54.9318" height="61.3316" filterUnits="userSpaceOnUse" color-interpolation-filters="sRGB">
<feFlood flood-opacity="0" result="BackgroundImageFix"/>
<feColorMatrix in="SourceAlpha" type="matrix" values="0 0 0 0 0 0 0 0 0 0 0 0 0 0 0 0 0 0 127 0"/>
<feOffset dy="4"/>
<feGaussianBlur stdDeviation="2"/>
<feColorMatrix type="matrix" values="0 0 0 0 0 0 0 0 0 0 0 0 0 0 0 0 0 0 0.15 0"/>
<feBlend mode="normal" in2="BackgroundImageFix" result="effect1_dropShadow"/>
<feBlend mode="normal" in="SourceGraphic" in2="effect1_dropShadow" result="shape"/>
</filter>
<filter id="filter2_d" x="139.438" y="424.875" width="54.9318" height="61.3316" filterUnits="userSpaceOnUse" color-interpolation-filters="sRGB">
<feFlood flood-opacity="0" result="BackgroundImageFix"/>
<feColorMatrix in="SourceAlpha" type="matrix" values="0 0 0 0 0 0 0 0 0 0 0 0 0 0 0 0 0 0 127 0"/>
<feOffset dy="4"/>
<feGaussianBlur stdDeviation="2"/>
<feColorMatrix type="matrix" values="0 0 0 0 0 0 0 0 0 0 0 0 0 0 0 0 0 0 0.15 0"/>
<feBlend mode="normal" in2="BackgroundImageFix" result="effect1_dropShadow"/>
<feBlend mode="normal" in="SourceGraphic" in2="effect1_dropShadow" result="shape"/>
</filter>
<linearGradient id="paint0_linear" x1="348.587" y1="545.404" x2="141.66" y2="545.404" gradientUnits="userSpaceOnUse">
<stop stop-color="#808080" stop-opacity="0.25"/>
<stop offset="0.54" stop-color="#808080" stop-opacity="0.12"/>
<stop offset="1" stop-color="#808080" stop-opacity="0.1"/>
</linearGradient>
<linearGradient id="paint1_linear" x1="33863.7" y1="-58457.8" x2="24395.7" y2="-58457.8" gradientUnits="userSpaceOnUse">
<stop stop-color="#808080" stop-opacity="0.25"/>
<stop offset="0.54" stop-color="#808080" stop-opacity="0.12"/>
<stop offset="1" stop-color="#808080" stop-opacity="0.1"/>
</linearGradient>
<linearGradient id="paint2_linear" x1="14558.4" y1="-39801.2" x2="11293.5" y2="-39801.2" gradientUnits="userSpaceOnUse">
<stop stop-color="#808080" stop-opacity="0.25"/>
<stop offset="0.54" stop-color="#808080" stop-opacity="0.12"/>
<stop offset="1" stop-color="#808080" stop-opacity="0.1"/>
</linearGradient>
<linearGradient id="paint3_linear" x1="18608.1" y1="-45878.8" x2="15152.1" y2="-45878.8" gradientUnits="userSpaceOnUse">
<stop stop-color="#808080" stop-opacity="0.25"/>
<stop offset="0.54" stop-color="#808080" stop-opacity="0.12"/>
<stop offset="1" stop-color="#808080" stop-opacity="0.1"/>
</linearGradient>
<linearGradient id="paint4_linear" x1="22669" y1="-39557.1" x2="19528.1" y2="-39557.1" gradientUnits="userSpaceOnUse">
<stop stop-color="#808080" stop-opacity="0.25"/>
<stop offset="0.54" stop-color="#808080" stop-opacity="0.12"/>
<stop offset="1" stop-color="#808080" stop-opacity="0.1"/>
</linearGradient>
<linearGradient id="paint5_linear" x1="24969.9" y1="-36762.7" x2="21568.7" y2="-36762.7" gradientUnits="userSpaceOnUse">
<stop stop-color="#808080" stop-opacity="0.25"/>
<stop offset="0.54" stop-color="#808080" stop-opacity="0.12"/>
<stop offset="1" stop-color="#808080" stop-opacity="0.1"/>
</linearGradient>
<linearGradient id="paint6_linear" x1="30305.1" y1="-36762.7" x2="26903.9" y2="-36762.7" gradientUnits="userSpaceOnUse">
<stop stop-color="#808080" stop-opacity="0.25"/>
<stop offset="0.54" stop-color="#808080" stop-opacity="0.12"/>
<stop offset="1" stop-color="#808080" stop-opacity="0.1"/>
</linearGradient>
<linearGradient id="paint7_linear" x1="33447.8" y1="-44655" x2="29993.3" y2="-44655" gradientUnits="userSpaceOnUse">
<stop stop-color="#808080" stop-opacity="0.25"/>
<stop offset="0.54" stop-color="#808080" stop-opacity="0.12"/>
<stop offset="1" stop-color="#808080" stop-opacity="0.1"/>
</linearGradient>
<linearGradient id="paint8_linear" x1="60612.7" y1="-100665" x2="46247.1" y2="-100665" gradientUnits="userSpaceOnUse">
<stop stop-color="#808080" stop-opacity="0.25"/>
<stop offset="0.54" stop-color="#808080" stop-opacity="0.12"/>
<stop offset="1" stop-color="#808080" stop-opacity="0.1"/>
</linearGradient>
</defs>
</svg>
